<svg width="108" height="56" viewBox="0 0 108 56" fill="none" xmlns="http://www.w3.org/2000/svg">
<path fill-rule="evenodd" clip-rule="evenodd" d="M108 0H0V56H108V0ZM93.2666 34.1132L93.2485 15.9926C93.2485 14.5834 92.3091 13.6259 90.8818 13.6259H72.7432C71.4062 13.6259 70.4307 14.6376 70.4307 15.8481C70.4307 17.0405 71.4604 18.0161 72.707 18.0161H79.2651L86.2568 17.7631L83.0229 20.6357L66.3477 37.329C65.8779 37.7988 65.6069 38.395 65.6069 38.9731C65.6069 40.1474 66.6909 41.2675 67.9014 41.2675C68.4976 41.2675 69.0576 41.0146 69.5454 40.5268L86.2388 23.8515L89.1294 20.6176L88.8403 27.3383V34.1494C88.8403 35.414 89.8159 36.4438 91.0264 36.4438C92.2368 36.4438 93.2666 35.4321 93.2666 34.1132ZM29.0988 14.65C28.0382 14.3615 26.8824 14.2653 25.6312 14.2653H13V41.1053L25.9171 41.0813C27.073 41.0813 28.2289 40.889 29.3848 40.6005C30.5406 40.312 31.6012 39.8312 32.471 39.2423C33.3409 38.6653 34.1155 37.7879 34.5921 36.8143C35.0807 35.8407 35.3667 34.6748 35.3667 33.3166C35.3667 31.6578 34.8781 30.2035 34.1155 29.0375C33.3528 27.8716 32.1016 26.9942 30.4572 26.5134C31.625 25.9365 32.5783 25.1552 33.1622 24.2777C33.8414 23.4003 34.1274 22.2344 34.1274 20.8762C34.1274 19.7102 33.9248 18.6405 33.5435 17.7631C33.1503 16.8856 32.5783 16.2005 31.8037 15.7197C31.0292 15.2389 30.1593 14.8423 29.0988 14.65ZM27.4543 24.3739C26.787 24.8667 25.9171 25.1552 24.8566 25.1552C24.8566 25.1552 18.8866 25.1552 18.8866 25.1672V18.8448H24.4753C25.0473 18.8448 25.5358 18.8448 26.0125 18.941C26.4891 19.0371 26.8824 19.2295 27.2637 19.4218C27.6569 19.7102 27.9429 20.0107 28.1336 20.3954C28.3242 20.78 28.4195 21.3569 28.4195 21.9459C28.4195 23.0157 28.1216 23.8811 27.4543 24.3739ZM26.787 36.4417C26.2985 36.5378 25.7265 36.634 25.1426 36.634V36.622H18.8866V29.1337H25.2379C26.4891 29.1337 27.5497 29.4222 28.3242 30.0111C29.0988 30.6963 29.4801 31.6699 29.4801 33.0281C29.4801 33.7132 29.2894 34.3022 29.0988 34.783C28.8128 35.2638 28.5149 35.5522 28.1336 35.8527C27.7522 36.1532 27.2637 36.3455 26.787 36.4417ZM47.3764 37.8803C45.7955 37.8803 44.6068 37.4914 43.8103 36.7015C43.0137 35.9116 42.4255 34.4412 42.4255 32.8371H56.8002C56.8983 31.2694 56.8002 29.884 56.6041 28.5108C56.1997 27.1376 55.6115 25.8616 54.815 24.78C54.0184 23.6013 53.0258 22.8235 51.739 22.1308C50.4523 21.4381 48.9695 21.1465 47.2784 21.1465C45.6852 21.1465 44.3985 21.4503 43.1118 21.9364C41.9231 22.4225 40.8324 23.2124 39.9378 24.0995C39.0432 25.0838 38.357 26.1654 37.8545 27.4414C37.3521 28.7174 37.156 30.1028 37.156 31.5732C37.156 33.153 37.3643 34.5263 37.8545 35.8023C38.2589 37.0783 38.9452 38.1598 39.8398 39.0469C40.7344 40.0313 41.727 40.724 43.0137 41.2101C44.3005 41.7083 45.6975 42 47.2784 42C49.5577 42 51.4449 41.4167 53.0258 40.4323C54.6066 39.3508 55.7953 37.6737 56.5919 35.3162H51.739C51.543 35.9116 51.0528 36.4949 50.2562 37.0904C49.4597 37.5887 48.4671 37.8803 47.3764 37.8803ZM46.9842 25.2904C48.271 25.2904 49.3616 25.6793 50.0602 26.372C50.7464 27.0647 51.2489 28.049 51.4449 29.5073H42.5235C42.5235 29.1791 42.5934 28.8421 42.6742 28.4527L42.6742 28.4524L42.6744 28.4515C42.6892 28.3799 42.7044 28.3067 42.7196 28.2313C42.8177 27.7452 43.026 27.247 43.4181 26.8581L43.4617 26.8149C43.8396 26.4397 44.2247 26.0574 44.8029 25.7765C45.4034 25.4849 46.0897 25.2904 46.9842 25.2904ZM52.4376 16.0546H41.3348V18.7038H52.4376V16.0546Z" fill="#065AF4"/>
</svg>
